<svg xmlns="http://www.w3.org/2000/svg" viewBox="0 0 680 520" role="img" aria-labelledby="dryer-title dryer-desc">
  <title id="dryer-title">Secadora rápida</title>
  <desc id="dryer-desc">Secadora frontal moderna con tambor cálido y ropa en movimiento</desc>
  <defs>
    <linearGradient id="dryer-case" x1="0" y1="0" x2="1" y2="1">
      <stop offset="0" stop-color="#ffffff"/>
      <stop offset="0.54" stop-color="#f8f8f5"/>
      <stop offset="1" stop-color="#cfd8dd"/>
    </linearGradient>
    <linearGradient id="dryer-side" x1="0" y1="0" x2="1" y2="1">
      <stop offset="0" stop-color="#ccd5da"/>
      <stop offset="1" stop-color="#7b8d97"/>
    </linearGradient>
    <linearGradient id="dryer-panel" x1="0" y1="0" x2="1" y2="0">
      <stop offset="0" stop-color="#5a2316"/>
      <stop offset="0.48" stop-color="#be4527"/>
      <stop offset="1" stop-color="#ff9d2f"/>
    </linearGradient>
    <radialGradient id="dryer-glass" cx="38%" cy="30%" r="77%">
      <stop offset="0" stop-color="#ffd792"/>
      <stop offset="0.38" stop-color="#ff9b38"/>
      <stop offset="0.75" stop-color="#b63b20"/>
      <stop offset="1" stop-color="#3b1713"/>
    </radialGradient>
    <linearGradient id="dryer-metal" x1="0" y1="0" x2="1" y2="1">
      <stop offset="0" stop-color="#fff9ec"/>
      <stop offset="0.25" stop-color="#f7b55c"/>
      <stop offset="0.5" stop-color="#fff7df"/>
      <stop offset="1" stop-color="#b54c2c"/>
    </linearGradient>
    <clipPath id="dryer-drum-clip">
      <circle cx="333" cy="307" r="104"/>
    </clipPath>
    <filter id="dryer-shadow" x="-30%" y="-30%" width="160%" height="180%">
      <feDropShadow dx="0" dy="16" stdDeviation="12" flood-color="#02070c" flood-opacity="0.4"/>
    </filter>
    <filter id="dryer-glow" x="-50%" y="-50%" width="200%" height="200%">
      <feGaussianBlur stdDeviation="16"/>
    </filter>
  </defs>

  <g opacity="0.6" fill="none" stroke-linecap="round">
    <path d="M107 144c18-18 18-38 0-56" stroke="#ff9d2f" stroke-width="8"/>
    <path d="M139 155c25-24 25-52 0-76" stroke="#ef4b33" stroke-width="6"/>
    <path d="M550 349c20-18 20-42 0-60" stroke="#ff9d2f" stroke-width="7"/>
  </g>

  <ellipse cx="344" cy="468" rx="171" ry="25" fill="#000000" opacity="0.24"/>
  <circle cx="335" cy="318" r="136" fill="#ff7a2b" opacity="0.16" filter="url(#dryer-glow)"/>

  <g filter="url(#dryer-shadow)">
    <path d="M459 59 504 82v323l-45 38z" fill="url(#dryer-side)" stroke="#171f26" stroke-width="8" stroke-linejoin="round"/>
    <rect x="178" y="52" width="291" height="392" rx="25" fill="url(#dryer-case)" stroke="#171f26" stroke-width="9"/>
    <path d="M183 76c0-11 9-20 20-20h241c11 0 20 9 20 20v87H183z" fill="url(#dryer-panel)"/>
    <path d="M183 162h281" stroke="#171f26" stroke-width="9"/>

    <circle cx="223" cy="108" r="13" fill="#ffd53d" stroke="#ffffff" stroke-width="5"/>
    <rect x="254" y="87" width="94" height="42" rx="8" fill="#171f26" stroke="#ffca63" stroke-width="4"/>
    <rect x="268" y="99" width="52" height="8" rx="4" fill="#ff9d2f"/>
    <rect x="268" y="113" width="37" height="5" rx="2.5" fill="#ffffff" opacity="0.55"/>
    <circle cx="410" cy="108" r="24" fill="#fffaf0" stroke="#e3a05b" stroke-width="5"/>
    <path d="M410 108V91M410 108l14-7" fill="none" stroke="#4e2018" stroke-width="6" stroke-linecap="round"/>
    <circle cx="410" cy="108" r="5" fill="#ef4b33"/>

    <circle cx="333" cy="307" r="127" fill="url(#dryer-metal)" stroke="#171f26" stroke-width="8"/>
    <circle cx="333" cy="307" r="110" fill="#2c1513" stroke="#fff3d6" stroke-width="6"/>
    <circle cx="333" cy="307" r="102" fill="url(#dryer-glass)"/>

    <g clip-path="url(#dryer-drum-clip)">
      <path d="M240 314c18-54 71-82 122-62 42 16 64 67 42 109-30 57-118 61-159 11-17-20-18-38-5-58z" fill="#fff0cc" opacity="0.32"/>
      <path d="M260 338c24-40 45-54 71-38 27 17 48 8 66-17 2 56-26 92-71 96-31 3-53-11-66-41z" fill="#ffe35b" opacity="0.82"/>
      <path d="M262 273c28-21 47-19 64 5 19 26 43 31 70 14-15-48-54-77-94-65-18 5-31 21-40 46z" fill="#ef4b33" opacity="0.83"/>
      <path d="M252 246c29-31 75-43 112-27" fill="none" stroke="#ffffff" stroke-width="11" stroke-linecap="round" opacity="0.52"/>
      <g fill="#fff5da" opacity="0.5">
        <circle cx="280" cy="277" r="4"/>
        <circle cx="311" cy="248" r="4"/>
        <circle cx="365" cy="268" r="4"/>
        <circle cx="386" cy="322" r="4"/>
        <circle cx="321" cy="355" r="4"/>
      </g>
    </g>

    <path d="M397 250a77 77 0 0 1 16 88" fill="none" stroke="#fff6d9" stroke-width="8" stroke-linecap="round"/>
    <path d="m404 344 20-4-7-19z" fill="#fff6d9"/>
    <rect x="214" y="414" width="55" height="11" rx="5.5" fill="#171f26" opacity="0.85"/>
    <rect x="397" y="414" width="37" height="11" rx="5.5" fill="#171f26" opacity="0.85"/>
  </g>

  <g transform="translate(112 358)">
    <path d="M13 23h93l-12 66H25z" fill="#ef4b33" stroke="#171f26" stroke-width="7" stroke-linejoin="round"/>
    <path d="M7 23h105" stroke="#171f26" stroke-width="8" stroke-linecap="round"/>
    <path d="M31 23c3-19 13-28 28-28s25 9 28 28" fill="none" stroke="#171f26" stroke-width="7"/>
    <path d="M38 45h44M34 62h50" stroke="#ffd53d" stroke-width="6" stroke-linecap="round"/>
  </g>
</svg>
