<svg width="128" height="128" viewBox="0 0 128 128" role="img" aria-labelledby="rw-title rw-desc" xmlns="http://www.w3.org/2000/svg">
  <title id="rw-title">Rayo Washing</title>
  <desc id="rw-desc">Lavadora con agua y un rayo amarillo</desc>

  <defs>
    <clipPath id="rw-door-clip">
      <circle cx="55" cy="76" r="22"/>
    </clipPath>
  </defs>

  <rect x="7" y="7" width="114" height="114" rx="9" fill="#F4FBFD" stroke="#09141F" stroke-width="6"/>
  <rect x="18" y="18" width="76" height="92" rx="8" fill="#FFFFFF" stroke="#09141F" stroke-width="6"/>
  <path d="M21 43h70V26a5 5 0 0 0-5-5H26a5 5 0 0 0-5 5v17Z" fill="#DDF7FA"/>
  <path d="M21 43h70" fill="none" stroke="#09141F" stroke-width="6"/>

  <circle cx="33" cy="31" r="5" fill="#FF4D35" stroke="#09141F" stroke-width="3"/>
  <circle cx="49" cy="31" r="5" fill="#16C7D5" stroke="#09141F" stroke-width="3"/>
  <rect x="66" y="26" width="16" height="10" rx="2" fill="#09141F"/>

  <circle cx="55" cy="76" r="29" fill="#FFFFFF" stroke="#09141F" stroke-width="6"/>
  <circle cx="55" cy="76" r="22" fill="#BFEFF5" stroke="#16C7D5" stroke-width="4"/>
  <g clip-path="url(#rw-door-clip)">
    <path d="M30 78c8-8 14 6 23-1 9-7 15-5 26 2v23H30V78Z" fill="#0877B9"/>
    <path d="M32 80c7-6 13 5 21-1 9-7 16-5 25 1" fill="none" stroke="#FFFFFF" stroke-width="4" stroke-linecap="round"/>
  </g>

  <path d="M107 10 72 61h17l-16 57 46-65H99l16-43h-8Z" fill="#FF4D35" stroke="#09141F" stroke-width="6" stroke-linejoin="miter"/>
  <path d="M104 9 74 57h18l-12 45 36-53H98l14-40h-8Z" fill="#FFE20A" stroke="#09141F" stroke-width="4" stroke-linejoin="miter"/>
  <path d="m104 22-20 32h10" fill="none" stroke="#FFFFFF" stroke-width="3" stroke-linecap="square"/>
</svg>
