<svg width="128" height="128" viewBox="0 0 128 128" role="img" aria-labelledby="rw-title rw-desc" xmlns="http://www.w3.org/2000/svg">
  <title id="rw-title">Rayo Washing</title>
  <desc id="rw-desc">Puerta circular de lavadora con agua y un rayo amarillo</desc>

  <defs>
    <clipPath id="rw-water-clip">
      <circle cx="52" cy="75" r="24"/>
    </clipPath>
  </defs>

  <circle cx="56" cy="67" r="47" fill="#16C7D5" opacity="0.24"/>
  <circle cx="52" cy="63" r="46" fill="#FFFFFF" stroke="#09141F" stroke-width="6"/>

  <path d="M18 43h67" fill="none" stroke="#09141F" stroke-width="5"/>
  <circle cx="31" cy="31" r="5" fill="#FF4D35" stroke="#09141F" stroke-width="3"/>
  <circle cx="47" cy="31" r="5" fill="#16C7D5" stroke="#09141F" stroke-width="3"/>
  <path d="M64 30h16" fill="none" stroke="#09141F" stroke-width="6" stroke-linecap="square"/>

  <circle cx="52" cy="75" r="31" fill="#FFFFFF" stroke="#09141F" stroke-width="5"/>
  <circle cx="52" cy="75" r="24" fill="#C9F2F6" stroke="#16C7D5" stroke-width="4"/>
  <g clip-path="url(#rw-water-clip)">
    <path d="M26 77c8-8 15 6 24-1 9-7 16-5 28 2v24H26V77Z" fill="#0877B9"/>
    <path d="M29 79c7-6 13 5 21-1 9-7 16-5 25 1" fill="none" stroke="#FFFFFF" stroke-width="4" stroke-linecap="round"/>
  </g>

  <path d="M106 7 71 60h17l-16 59 47-67H99l16-45h-9Z" fill="#FF4D35" stroke="#FFFFFF" stroke-width="9" stroke-linejoin="miter"/>
  <path d="M106 7 71 60h17l-16 59 47-67H99l16-45h-9Z" fill="#FF4D35" stroke="#09141F" stroke-width="5" stroke-linejoin="miter"/>
  <path d="M103 9 74 56h18l-12 46 36-53H98l14-40h-9Z" fill="#FFE20A" stroke="#09141F" stroke-width="3" stroke-linejoin="miter"/>
  <path d="m103 22-19 31h10" fill="none" stroke="#FFFFFF" stroke-width="3" stroke-linecap="square"/>
</svg>
